<?xml version="1.0" encoding="UTF-8"?>
<svg width="1200pt" height="1200pt" version="1.1" viewBox="0 0 1200 1200" xmlns="http://www.w3.org/2000/svg">
 <path d="m1092 443.5c-4.7578 4.6133-11.125 7.1914-17.75 7.1914s-12.992-2.5781-17.75-7.1914l-231.5-250v681.5c-0.13281 59.633-23.879 116.79-66.047 158.95s-99.32 65.914-158.95 66.047h-475c-8.9297 0-17.184-4.7656-21.652-12.5-4.4648-7.7344-4.4648-17.266 0-25 4.4688-7.7344 12.723-12.5 21.652-12.5h475c46.414 0 90.926-18.438 123.74-51.258 32.82-32.816 51.258-77.328 51.258-123.74v-685.5l-231.5 252.5c-6.0742 6.6094-15.211 9.4766-23.973 7.5195-8.7617-1.9531-15.812-8.4336-18.5-17-2.6875-8.5625-0.60156-17.91 5.4727-24.52l275-300c4.6367-5.0234 11.164-7.8789 18-7.8789s13.363 2.8555 18 7.8789l275 300c4.5469 4.8203 7.0352 11.227 6.9414 17.852s-2.7617 12.957-7.4414 17.648z" fill="#790019"/>
</svg>
