<?xml version="1.0" encoding="UTF-8"?>
<svg width="1200pt" height="1200pt" version="1.1" viewBox="0 0 1200 1200" xmlns="http://www.w3.org/2000/svg">
 <path d="m1093.5 792-275 300c-1.8281 1.9375-4.043 3.4727-6.5 4.5-6.3984 2.668-13.602 2.668-20 0-2.457-1.0273-4.6719-2.5625-6.5-4.5l-275-300c-4.6133-4.7578-7.1914-11.125-7.1914-17.75s2.5781-12.992 7.1914-17.75c4.6953-4.7344 11.086-7.3945 17.75-7.3945s13.055 2.6602 17.75 7.3945l231.5 252.5v-684c0.003906-31.004-8.2305-61.453-23.859-88.227-15.625-26.777-38.086-48.922-65.082-64.168-26.996-15.246-57.559-23.047-88.559-22.605h-475c-8.9297 0-17.184-4.7656-21.652-12.5-4.4648-7.7344-4.4648-17.266 0-25 4.4688-7.7344 12.723-12.5 21.652-12.5h475c59.633 0.13281 116.79 23.879 158.95 66.047s65.914 99.32 66.047 158.95v685.5l231.5-252.5c4.6953-4.7344 11.086-7.3945 17.75-7.3945s13.055 2.6602 17.75 7.3945c4.3945 4.4883 6.9766 10.438 7.25 16.715 0.27734 6.2734-1.7695 12.43-5.75 17.285z" fill="#790019"/>
</svg>
